<?xml version="1.0" encoding="utf-8"?>
<!-- Generator: Adobe Illustrator 13.0.0, SVG Export Plug-In . SVG Version: 6.00 Build 14948)  -->
<!DOCTYPE svg PUBLIC "-//W3C//DTD SVG 1.1//EN" "http://www.w3.org/Graphics/SVG/1.1/DTD/svg11.dtd">
<svg version="1.1" xmlns="http://www.w3.org/2000/svg" xmlns:xlink="http://www.w3.org/1999/xlink" x="0px" y="0px" width="350px"
	 height="350px" viewBox="0 0 350 350" enable-background="new 0 0 350 350" xml:space="preserve">
<g id="Layer_1">
	<g id="XMLID_2_">
		<g>
			<polygon fill="#39B54A" points="193.5,8 193.5,345.4 172,319.35 172,34.05 			"/>
		</g>
		<g>
			<polyline fill="none" stroke="#000000" stroke-miterlimit="1" points="193.5,346 193.5,345.4 193.5,8 			"/>
			<line fill="none" stroke="#000000" stroke-miterlimit="1" x1="193.5" y1="8" x2="172" y2="34.05"/>
			<line fill="none" stroke="#000000" stroke-miterlimit="1" x1="172" y1="34.05" x2="172" y2="319.35"/>
			<polyline fill="none" stroke="#000000" stroke-miterlimit="1" points="172,319.35 193.5,345.4 193.75,345.7 			"/>
		</g>
	</g>
	<g id="XMLID_1_">
		<g>
			<polygon fill="#39B54A" points="267.723,173.321 241.514,190.306 237.818,187.862 267.684,173.291 			"/>
			<polygon fill="#39B54A" points="272.06,31.719 146.122,93.16 126.469,80.211 126.077,79.014 251.151,18 			"/>
			<polygon fill="#39B54A" points="123.502,104.199 146.122,93.16 246.828,159.547 216.963,174.119 122.062,111.563 
				123.071,104.413 			"/>
			<polygon fill="#39B54A" points="126.469,80.211 146.122,93.16 123.502,104.199 123.071,104.413 			"/>
			<polygon fill="#39B54A" points="237.818,187.862 119.273,245.706 121.321,220.785 216.963,174.119 			"/>
			<polygon fill="#39B54A" points="267.684,173.291 237.818,187.862 216.963,174.119 246.828,159.547 			"/>
		</g>
		<g>
			<line fill="none" stroke="#000000" x1="146.122" y1="93.16" x2="272.06" y2="31.719"/>
			<line fill="none" stroke="#000000" x1="123.029" y1="104.426" x2="123.071" y2="104.413"/>
			<line fill="none" stroke="#000000" x1="272.06" y1="31.719" x2="251.151" y2="18"/>
			<polyline fill="none" stroke="#000000" points="251.151,18 126.077,79.014 125.351,79.367 			"/>
			<line fill="none" stroke="#000000" x1="267.684" y1="173.291" x2="268.03" y2="173.126"/>
			<polyline fill="none" stroke="#000000" points="119,245.833 119.273,245.706 237.818,187.862 			"/>
			<line fill="none" stroke="#000000" x1="216.963" y1="174.119" x2="121.321" y2="220.785"/>
			<line fill="none" stroke="#000000" x1="247.122" y1="159.408" x2="246.828" y2="159.547"/>
			<polyline fill="none" stroke="#000000" points="121.321,220.785 119.273,245.706 119.247,245.994 			"/>
			<polyline fill="none" stroke="#000000" points="126.594,80.896 123.502,104.199 122.878,108.881 			"/>
			<polyline fill="none" stroke="#000000" points="267.979,173.492 267.723,173.321 267.684,173.291 246.828,159.547 146.122,93.16 
				126.469,80.211 			"/>
			<polyline fill="none" stroke="#000000" points="126.469,80.211 123.071,104.413 122.062,111.563 			"/>
			<polyline fill="none" stroke="#000000" points="122.062,111.563 216.963,174.119 237.818,187.862 241.514,190.306 			"/>
			<polyline fill="none" stroke="#000000" points="241.514,190.306 267.723,173.321 268.03,173.126 			"/>
		</g>
	</g>
</g>
<g id="Layer_2">
</g>
</svg>
